<svg xmlns="http://www.w3.org/2000/svg" viewBox="0 0 96 90.98"><title>VKSRC</title><path d="M548.5,338.51v80.41l-37,10.57-37-10.57V338.51Zm-69,4v73.1l32.5,9.61,32.5-9.61v-73.1Z" transform="translate(-463.5 -338.51)" style="fill:#09f"/><polygon points="20 9 20 73.31 48.5 81.77 77 73.31 77 9 20 9" style="fill:#09f"/><rect y="26" width="96" height="38" style="fill:#09f"/><path d="M478.75,394.51h-2l-7.75-21h4l4.79,14,5.07-14h4Z" transform="translate(-463.5 -338.51)" style="fill:#fffbe5"/><path d="M501.28,394.51,495,385.56l-2.51,3.2v5.75h-4v-21h4v10.05l7.66-10.05h4.56l-7.07,9.17,8.42,11.83Z" transform="translate(-463.5 -338.51)" style="fill:#fffbe5"/><path d="M505.88,392.77l1.36-3.29a7.5,7.5,0,0,0,4.28,1.52c2.16,0,3.24-.75,3.24-2.26a3.22,3.22,0,0,0-.77-2,9.66,9.66,0,0,0-3.14-2.15,14.89,14.89,0,0,1-3.21-2,5.24,5.24,0,0,1-1.27-1.83,5.88,5.88,0,0,1-.44-2.34,5.09,5.09,0,0,1,1.76-4,6.45,6.45,0,0,1,4.51-1.59q3.59,0,5.27,1.34l-1.12,3.17a6.93,6.93,0,0,0-4.08-1.39,2.72,2.72,0,0,0-2,.68,2.27,2.27,0,0,0-.7,1.74q0,1.78,3.94,3.7a13,13,0,0,1,3,1.87,5.77,5.77,0,0,1,1.39,2,6.41,6.41,0,0,1,.48,2.53,5.11,5.11,0,0,1-2,4.14,8.16,8.16,0,0,1-5.32,1.62A9.47,9.47,0,0,1,505.88,392.77Z" transform="translate(-463.5 -338.51)" style="fill:#fffbe5"/><path d="M533.74,393.51l-5.8-8.55c-.58,0-1.39,0-2.44-.1v8.65h-4v-20.7c.22,0,1,0,2.5-.1s2.63-.11,3.52-.11q8.26,0,8.26,6.1a5.43,5.43,0,0,1-1.14,3.35,6.09,6.09,0,0,1-2.87,2.13l6.41,9.33Zm-8.24-17.1v5.75c.68,0,1.2.08,1.55.08a6.61,6.61,0,0,0,3.37-.65,2.72,2.72,0,0,0,1.07-2.53,2.21,2.21,0,0,0-1.14-2.13,8.17,8.17,0,0,0-3.61-.61A9.05,9.05,0,0,0,525.5,376.41Z" transform="translate(-463.5 -338.51)" style="fill:#fffbe5"/><path d="M553.52,374.32l-1.51,3a5.43,5.43,0,0,0-4-1.23,5.13,5.13,0,0,0-4.24,2.16,8.83,8.83,0,0,0-1.65,5.49,8.3,8.3,0,0,0,1.53,5.27,5,5,0,0,0,4.09,1.95,5.52,5.52,0,0,0,4.58-2.09l1.71,3q-2.25,2.39-6.58,2.38a8.33,8.33,0,0,1-6.74-2.85,11.71,11.71,0,0,1-2.4-7.78A11.37,11.37,0,0,1,541,376a8.61,8.61,0,0,1,6.82-3.09A9.93,9.93,0,0,1,553.52,374.32Z" transform="translate(-463.5 -338.51)" style="fill:#fffbe5"/></svg>